/* XPM */
static char *dummy[]={
"32 32 602 2",
"Qt c None",
"f6 c #010101",
".i c #020101",
".# c #020202",
"ec c #020203",
"#T c #030203",
"gW c #020203",
".P c #030303",
".4 c #040304",
"ae c #060607",
"hd c #040405",
"#r c #070708",
".e c #050404",
".q c #060505",
"af c #060507",
"c8 c #080809",
".S c #060505",
"aG c #060607",
"a5 c #070608",
"cK c #0a090b",
"cv c #0a0a0b",
"aF c #0b0b0c",
".6 c #0a090a",
"#m c #0e0e10",
".g c #090807",
".b c #0a0808",
".5 c #0a0a0b",
".r c #0b0908",
"#q c #111112",
".f c #0b0909",
".7 c #0c0c0e",
".8 c #0d0c0e",
"#o c #111113",
"bP c #0c0b0e",
"br c #0d0c0e",
"bq c #141315",
".d c #0f0c0b",
"#n c #161618",
"a4 c #161618",
"bO c #181719",
"#l c #18171a",
".j c #110d0d",
"#p c #19191c",
".a c #120f0e",
"c. c #1a191c",
"c# c #100f13",
".h c #13100f",
".9 c #161314",
"#h c #191719",
"#k c #1a181a",
"#g c #1b191b",
".z c #171312",
".w c #181313",
".F c #191413",
"he c #111018",
"gw c #13121a",
".V c #1f1a19",
"cw c #1c1a20",
"dt c #241e1d",
".Z c #231d1c",
".y c #251e1d",
"f7 c #191821",
".l c #27201e",
".m c #2c2321",
".E c #2d2522",
"#b c #2f2929",
".1 c #2f2624",
"hf c #1a1927",
"hg c #1a1a28",
"cL c #2e2931",
".C c #342b28",
"hh c #1e1d2d",
"hx c #2b2835",
".M c #3e312d",
".I c #413430",
"hj c #222134",
"hi c #232234",
"dW c #36323e",
"ed c #37323f",
".3 c #433632",
"en c #393440",
".H c #423735",
".v c #4c3d39",
"hk c #28273e",
"fM c #3c3747",
"eA c #413b49",
".R c #4e3f3a",
"gV c #4f4a57",
"hl c #2d2c44",
"eV c #484251",
"#a c #594a47",
"e7 c #4a4455",
"du c #4f444b",
".p c #5c4b45",
"hc c #514a5c",
"#c c #665652",
"gX c #363452",
"#s c #5d566a",
".N c #69544e",
".W c #69554f",
"ho c #3b3956",
".B c #6c5751",
".U c #725b54",
".Y c #715b54",
"hn c #403d53",
"#S c #b7b5c1",
"hp c #454464",
"hq c #474565",
"hr c #484563",
"fx c #5f5770",
"fh c #655d74",
".T c #80665c",
"#i c #816c68",
".c c #80675e",
".O c #80665e",
".n c #80675f",
"hm c #4c4852",
"gx c #444368",
"hs c #504d6c",
"#. c #856d66",
"ht c #514e6e",
".s c #866c63",
"#e c #886f67",
"dV c #896e65",
"fL c #948a9b",
"fw c #968c9d",
"fg c #978e9e",
"e6 c #978e9f",
"eU c #988f9f",
"f5 c #988fa1",
"ez c #9a90a1",
"em c #9b91a1",
"gv c #a099af",
".Q c #8b7066",
".K c #8d7066",
"hw c #5e5977",
"c9 c #8d7168",
"#j c #927871",
"eb c #9d93a4",
"hu c #5a577a",
"#U c #867c92",
".u c #91746a",
"ad c #d2cde0",
".J c #93766c",
".o c #94766c",
".A c #94766d",
".2 c #94776c",
"ag c #908498",
"c7 c #aea5b5",
"aH c #8f8398",
"#f c #997e78",
"a3 c #cdc4da",
"f8 c #535078",
"a6 c #8f8499",
"cJ c #b6acbc",
"cu c #bab1c3",
"aE c #d3cbe1",
"## c #9a7e75",
"ds c #a18a8c",
"#t c #90879f",
"#y c #a9a0af",
"#u c #b3abb7",
"#v c #b4adb8",
"#N c #cec5d9",
"bp c #cec5da",
"#P c #d5cce0",
"#R c #e3e1ef",
"#w c #b7afbb",
"#x c #bab2be",
"#L c #ccc2d6",
"#z c #aaa1b1",
"gY c #494876",
"#d c #9e7e74",
"b9 c #c7bdd1",
"hb c #776e8c",
"#O c #d6cce1",
"#M c #d3c9dd",
"#H c #d6ccd9",
"#K c #ccc2d5",
"#I c #d7cddb",
"#Q c #dcd4e8",
".X c #9e7f74",
"bN c #cfc5da",
".D c #a08074",
".G c #a08075",
".0 c #a18075",
".x c #a18076",
".L c #a08075",
".k c #a18076",
"gZ c #4a4979",
"gy c #4c4a7a",
"g0 c #4c4b7a",
"gz c #4e4c7b",
"gA c #504e7d",
"g1 c #514f7d",
"gB c #53507e",
"f9 c #54517f",
"gC c #56537f",
"g. c #58547f",
"gD c #595480",
"g# c #5a5781",
"gE c #5a5782",
"g2 c #5c577a",
"gF c #5d5983",
"ga c #5d5a83",
"g4 c #5e5a7e",
"g5 c #5e5a83",
"gG c #5f5b84",
"g6 c #605d84",
"gb c #605d85",
"g7 c #635f85",
"gc c #656086",
"g8 c #666187",
"gJ c #676388",
"hv c #676389",
"gd c #686488",
"g9 c #696488",
"fy c #69648b",
"gK c #6b6589",
"ge c #6c668a",
"fj c #6c688d",
"gL c #6e688a",
"h. c #6f698b",
"gf c #70698c",
"gM c #716a8c",
"fN c #726a8d",
"h# c #736b8c",
"gN c #736c8d",
"gg c #736c8e",
"f. c #746d8f",
"gH c #756981",
"ha c #766d8e",
"fO c #766e8e",
"gO c #786f8f",
"g3 c #796f75",
"fP c #7a7191",
"fi c #7a7393",
"gP c #7b7291",
"e9 c #7d7392",
"eW c #7d7493",
"fQ c #7e7592",
"aK c #7e7595",
"eD c #7f7693",
"gQ c #807491",
"gj c #827896",
"er c #827995",
"gR c #837894",
"fR c #837994",
"gS c #857a96",
"fz c #857d97",
"eh c #867d97",
"fS c #877d97",
"eE c #887e99",
"gT c #897e99",
"fT c #8a7f98",
"bT c #8b809a",
"gh c #8c777e",
"gI c #8c7a7e",
"dF c #8c8094",
"gU c #8c839b",
"fU c #8d8299",
"bv c #8d829b",
"b. c #8d85a1",
"fk c #8e8499",
"d1 c #8e849b",
"fV c #8f849c",
"gk c #9086a0",
"e8 c #90879b",
"dC c #928597",
"dE c #928598",
"dv c #928697",
"a9 c #92879d",
"eo c #92889b",
"gi c #937e83",
"fX c #93889e",
"eB c #93899b",
"fA c #93899c",
"dG c #948694",
"cM c #948899",
"ee c #94899d",
"dX c #94899e",
"eC c #948a9c",
"f# c #948a9d",
"dw c #958999",
"fW c #95899e",
"bQ c #958aa0",
"de c #967e7b",
"dx c #968a9a",
"ep c #968b9e",
"bs c #968ba2",
"fl c #968c9e",
"dy c #978b9a",
"dz c #978b9b",
"aJ c #978b9f",
"fB c #978c9f",
"ef c #978d9f",
"dB c #988b9b",
"dA c #988c9b",
"eq c #988da0",
"fC c #988da1",
"dY c #988ea0",
"dS c #99858a",
"dR c #99868c",
"fb c #998ea0",
"ei c #998ea1",
"fo c #998ea2",
"go c #998ea3",
"dZ c #998fa1",
"fD c #9a807e",
"dT c #9a8487",
"dQ c #9a888e",
"dH c #9a8b93",
"dD c #9a8d9b",
"eY c #9a8e9f",
"fm c #9a8fa1",
"eg c #9a8fa2",
"eF c #9a90a2",
"gp c #9a91a5",
"dP c #9b898f",
"cO c #9b8d9c",
"dI c #9b8e99",
"cN c #9b8e9c",
"d0 c #9b90a2",
"eZ c #9c817b",
"fp c #9c817c",
"dO c #9c8a92",
"dN c #9c8b93",
"dK c #9c8e99",
"cP c #9c8e9c",
"ca c #9c91a3",
"bR c #9c91a4",
"fc c #9d817d",
"fn c #9d92a4",
"cb c #9d92a5",
"ce c #9d93a8",
"dU c #9e8481",
"dL c #9e8f98",
"cx c #9e93a6",
"cY c #9f8076",
"fY c #9f8a8d",
"cQ c #9f919e",
"fa c #9f93a5",
"bt c #9f93a6",
"bS c #9f94a5",
"df c #a08176",
"dM c #a0909a",
"d2 c #a093a2",
"cc c #a094a4",
"gq c #a094a8",
"d# c #a18075",
"db c #a18076",
"da c #a18175",
"d. c #a18176",
"dg c #a18278",
"#E c #a18784",
"fq c #a18b8e",
"fd c #a18c8f",
"cR c #a1919b",
"dJ c #a193a0",
"a7 c #a194a3",
"bu c #a195a2",
"dc c #a28075",
"dd c #a28175",
".t c #a28176",
"dh c #a28278",
"dm c #a2847c",
"dn c #a2857d",
"dp c #a28780",
"e0 c #a28e91",
"cS c #a2939d",
"cT c #a2939f",
"aI c #a295a2",
"cd c #a295a3",
"eX c #a295a4",
"di c #a38379",
"dk c #a3837a",
"dj c #a3847a",
"dl c #a3847b",
"do c #a3867e",
"dq c #a38883",
"a8 c #a396a3",
"gr c #a397a9",
"eG c #a499a8",
"gl c #a499ae",
"dr c #a58985",
"fE c #a597a4",
"gs c #a59aac",
"gm c #a59cb1",
"cZ c #a6979e",
"fe c #a698a5",
"e1 c #a799a6",
"d3 c #a79aa6",
"ej c #a79ba7",
"#V c #a79fb2",
"ch c #a898a0",
"cB c #a899a2",
"f1 c #a89daa",
"gt c #a89dad",
"#3 c #a9918e",
"eL c #a99ba8",
"c0 c #a99ca7",
"gn c #a99db2",
"c1 c #ab9ca7",
"c2 c #ab9da9",
"bb c #ab9daa",
"f2 c #ab9eaa",
"f0 c #aba1ac",
"#Y c #aba1ad",
"an c #ac9eab",
"fH c #ac9fab",
"aO c #ac9fac",
"c6 c #aca0ac",
"cF c #aca0ad",
"ao c #aca1ae",
"c5 c #ad9fab",
"ci c #ad9fac",
"fG c #ada1ad",
"ah c #ada1ae",
"aq c #ada3b1",
"#Z c #ada4b0",
"aN c #aea0ac",
"c4 c #aea0ad",
"cC c #aea0ae",
"fs c #aea1ad",
"cG c #aea4b0",
"ap c #aea5b1",
"cA c #af9188",
"cj c #afa1a4",
"ft c #afa1af",
"bc c #afa2ae",
"cH c #afa7b3",
"cE c #b0a2b0",
"e3 c #b0a3af",
"bY c #b1a3a1",
"bC c #b1a3a4",
"eO c #b1a3af",
"bf c #b1a7ad",
"cI c #b1aab5",
"#0 c #b2a7b4",
"bB c #b4a7b2",
"fK c #b4a7b6",
"#2 c #b4a9b6",
"#A c #b4aaba",
"#1 c #b4abb7",
"eP c #b5a7b6",
"bw c #b5abbd",
"eK c #b6a6ac",
"fI c #b6a9b8",
"ai c #b6acbe",
"cX c #b7aab1",
"eu c #b7aab5",
"#B c #b7acbd",
"by c #b8abb6",
"ct c #b8aebb",
"fv c #b9acbc",
"#D c #b9aebf",
"#C c #b9afc0",
"#F c #bca7a5",
"am c #beb2bb",
"c3 c #beb2c2",
"ff c #beb2c3",
"b8 c #beb3bf",
"ew c #bfb3bd",
"e4 c #c0b4c5",
"f3 c #c1b5c7",
"cU c #c2b5be",
"aP c #c2b6bf",
"e5 c #c4b8cb",
"fZ c #c4b9c1",
"fF c #c5b9c2",
"bM c #c6b8c6",
"fr c #c6bac1",
"cy c #c6bac6",
"#6 c #c6bac7",
"cD c #c6bbcd",
"eM c #c6bcc4",
"gu c #c6bdd3",
"e2 c #c7bbc2",
"d4 c #c7bdc8",
"#7 c #c7bdcb",
"ea c #c8bbc4",
"bo c #c8becb",
"bX c #c9bcc3",
"#8 c #c9bfcf",
"aj c #cabfcb",
"aS c #cac0c7",
"cs c #cac199",
"#9 c #ccc1d4",
"a2 c #cdc3d6",
"#J c #cec4d5",
"a. c #cfc4d7",
"cV c #d0c1c5",
"cW c #d1c2c5",
"et c #d1c5cb",
"a# c #d1c6d9",
"ev c #d1c7cd",
"ex c #d1c7d7",
"d5 c #d2c6cd",
"aa c #d2c7db",
"ba c #d3c6cc",
"ck c #d4be6b",
"cl c #d4bf6b",
"d6 c #d5c0bc",
"bz c #d5c9cf",
"b7 c #d5ce8f",
"d7 c #d6c8cc",
"fu c #d6cce2",
"eJ c #d7c4c1",
"cm c #d7c56f",
"ar c #d7c9cc",
"eT c #d7cbd0",
"#G c #d7ccd9",
"aD c #d7cde0",
"d8 c #d9ccd2",
"d9 c #d9cdd3",
"f4 c #d9d0e7",
"bL c #d9d292",
"e. c #dacdd3",
"aL c #daced6",
"fJ c #dad1e8",
"co c #dbce61",
"#X c #dbcfd4",
"bn c #dcd595",
"el c #ddd0d4",
"cp c #ddd25e",
"be c #ded3d7",
"a1 c #dfd898",
"cn c #e0d072",
"e# c #e0d3da",
"bU c #e0d3db",
"cg c #e1cfcc",
"au c #e1d074",
"eR c #e1d4d9",
"cq c #e1d962",
"av c #e2d36f",
"eI c #e2d6da",
"#5 c #e2d6dc",
"ab c #e2dbed",
"aw c #e3d770",
"cr c #e3de60",
"eQ c #e4d9e4",
"ax c #e5db6e",
"ay c #e7e072",
"eH c #eadde0",
"eS c #ebdee1",
"az c #ebe572",
"aA c #ebe973",
"bg c #edd240",
"aM c #ede0e3",
"aB c #edeb76",
"bD c #eed33d",
"bV c #eee1e3",
"aT c #efd942",
"ey c #efe1e4",
"aC c #efecb9",
"ac c #efecf9",
"bE c #f0d53d",
"bh c #f0d83c",
"bF c #f0d83d",
"aU c #f0da3c",
"bd c #f0e3e5",
"bi c #f1db3c",
"at c #f1e5e8",
"b0 c #f2d73d",
"bZ c #f2d83f",
"b1 c #f2dd3c",
"aV c #f2de3c",
"#4 c #f3e6e5",
"b# c #f3e6e9",
"b2 c #f4e439",
"bG c #f4e43d",
"bA c #f4e6e8",
"es c #f4e8e9",
"bj c #f5e63c",
"cz c #f5e8e8",
"ek c #f5e8ea",
"bl c #f6e93b",
"bI c #f6e93c",
"b3 c #f6e93d",
"bJ c #f6ea3b",
"cf c #f7e9eb",
"eN c #f7eaeb",
"b4 c #f7eb3a",
"aY c #f7ed3b",
"bm c #f7ee3a",
"bx c #f8eaeb",
"bW c #f8eaec",
"aW c #f8ec3a",
"bH c #f8ec3b",
"bk c #f8ee39",
"b5 c #f8ee3b",
"al c #f9ebec",
"aQ c #f9eced",
"aX c #f9f13b",
"aZ c #f9f23d",
"aR c #faeced",
"ak c #faeded",
"as c #faedee",
"bK c #faf63c",
"#W c #fbedee",
"b6 c #fbf93b",
"a0 c #fbfa3d",
"QtQtQtQtQtQtQtQtQtQtQtQt.#.aQtQtQtQtQtQtQtQtQtQtQtQtQtQtQtQtQtQt",
"QtQtQtQtQtQtQtQtQtQtQtQt.b.c.dQtQtQt.e.fQtQtQtQtQtQtQtQtQtQtQtQt",
"QtQtQtQtQtQtQtQt.g.h.iQt.j.k.lQtQt.m.n.o.p.qQtQtQtQtQtQtQtQtQtQt",
"QtQtQtQtQtQtQt.r.s.t.u.v.w.x.yQt.z.A.B.C.D.EQtQtQtQtQtQtQtQtQtQt",
"QtQtQtQtQtQtQt.F.G.H.I.J.K.L.MQt.N.O.PQt.Q.RQtQtQtQtQtQtQtQtQtQt",
"QtQtQtQtQtQtQt.S.T.U.V.S.W.X.Y.Z.0.1Qt.b.2.3QtQtQtQtQtQtQtQtQtQt",
"QtQt.4.5.6.5.7.8.9#.###a#b#c#d#e#f#g#h#i#j#k#l#m#n#o#p#q#rQtQtQt",
"QtQt#s#t#u#v#w#x#y#z#A#B#C#D#E#F#G#H#I#J#K#L#M#N#O#P#Q#R#SQtQtQt",
"Qt#T#U#V#W#W#W#W#X#Y#Z#0#1#2#3#4#W#W#5#6#7#8#9a.a#aaabacadaeQtQt",
"Qtafagahaiajak#Walamanaoapaqaras#WatauavawaxayazaAaBaCaDaEaFQtQt",
"QtaGaHaIaJaKaL#W#WaMaNanaOaPaQ#WaRaSaTaUaVaWaXaYaZa0a1a2a3a4QtQt",
"Qta5a6a7a8a9b.b##W#Wbabbbcbd#W#Wbebfbgbhbibjbkblbma0bnbobpbqQtQt",
"Qtbrbsbtbua8bvbwas#Wbxbybz#W#WbAbBbCbDbEbFbGbHbIbJbKbLbMbNbOQtQt",
"QtbPbQbRbSaIa8bTbU#W#WbVbW#WaRbXanbYbZb0b1b2b3b4b5b6b7b8b9c.QtQt",
"Qtc#bQcacbccaIcdcecf#W#W#WascgchcicjckclcmcncocpcqcrcsctcucvQtQt",
"QtcwbQcacacxa7a8a7cy#W#W#WczcAcBaOcicicCcDcEaOaOcFcGcHcIcJcKQtQt",
"QtcLcMcNcOcPcQcRcScTcUcVcWcXcYcZc0c1c2c3c4anc5anananc6#Zc7c8QtQt",
"Qtc9d.d.d#d.dad.d#dbdcddd.de.tdfdgdhdidjdkdldmdndodpdqdrdsdtQtQt",
"QtdudvdwdxdydzdAdBdCdDdEdFdGdfdHdIdJdKdLdMdNdOdPdQdRdSdTdUdVQtQt",
"QtdWdXdYdZd0cad0d1d2a8d3d4d5d6d7d8d9d8e.e#e.e.e.e.e.eabbebecQtQt",
"QtedeeefdYdZegeheibtaIejek#W#W#Wasas#W#Was#W#Was#W#WelciemQtQtQt",
"QteneoepeqdYera9cabRbSd3es#W#Weteuev#W#Wbxewexey#W#WelciezQtQtQt",
"QteAeBeCepeDeEeFcacacbeGeHeIeJeKeLeM#W#WeNeOePeQeReSeTcieUQtQtQt",
"QteVeBeBeWeWdYdZd0cacacxeXeYeZe0e1e2#W#WeNe3aOe4e5cic4cie6QtQtQt",
"Qte7e8e9f.f#eqdYdZd0cacafafbfcfdfee2#W#WcfbcaOci#9ffcicifgQtQtQt",
"QtfhfifjfkeCfleqdYfmcacafnfofpfqfefr#W#WcffsanaOftfufvcifwQtQtQt",
"QtfxfyfzeBfAeCfBdYdZeFcacafCfDfdfEfF#W#WcffGbbfHaOfIfJfKfLQtQtQt",
"QtfMfNfOfPfQfRfSfTfUfVa9fWfXfDfYcdfZ#W#WeNf0f1f2aOaOf3f4f5QtQtQt",
"Qtf6f7f8f9g.g#gagbgcgdgegfggghgigjgkglgmgngogpgqgrgsgtgugvQtQtQt",
"QtQtQtgwgxgygzgAgBgCgDgEgFgGgHgIgJgKgLgMgNgOgPgQgRgSgTgUgVQtQtQt",
"QtQtQtQtgWgXgYgZgZgZg0gzg1f9g2g3g4g5g6g7g8g9geh.h#hahbhchdQtQtQt",
"QtQtQtQtQtQthehfhghfhhhihjhkhlhmhnhohphqhrhshthuhvhwhxQtQtQtQtQt"};
